<svg id="hover_twitter_icon" xmlns="http://www.w3.org/2000/svg" width="34.995" height="35" viewBox="0 0 34.995 35">
  <metadata><?xpacket begin="﻿" id="W5M0MpCehiHzreSzNTczkc9d"?>
<x:xmpmeta xmlns:x="adobe:ns:meta/" x:xmptk="Adobe XMP Core 5.6-c138 79.159824, 2016/09/14-01:09:01        ">
   <rdf:RDF xmlns:rdf="http://www.w3.org/1999/02/22-rdf-syntax-ns#">
      <rdf:Description rdf:about=""/>
   </rdf:RDF>
</x:xmpmeta>
                                                                                                    
                                                                                                    
                                                                                                    
                                                                                                    
                                                                                                    
                                                                                                    
                                                                                                    
                                                                                                    
                                                                                                    
                                                                                                    
                                                                                                    
                                                                                                    
                                                                                                    
                                                                                                    
                                                                                                    
                                                                                                    
                                                                                                    
                                                                                                    
                                                                                                    
                                                                                                    
                           
<?xpacket end="w"?></metadata>
<defs>
    <style>
      .cls-1 {
        fill: #0e30af;
      }

      .cls-2 {
        fill: #fff;
        fill-rule: evenodd;
      }
    </style>
  </defs>
  <rect id="Rectangle_9_copy" data-name="Rectangle 9 copy" class="cls-1" width="34.995" height="35" rx="10" ry="10"/>
  <path class="cls-2" d="M1008.67,2655.25a11.428,11.428,0,0,0,11.4-11.31c0-.18,0-0.35-0.01-0.52a8.068,8.068,0,0,0,2.06-2.06,8.455,8.455,0,0,1-2.37.63,4.032,4.032,0,0,0,1.82-2.2,8.418,8.418,0,0,1-2.62.97,4.2,4.2,0,0,0-3.02-1.26,4.056,4.056,0,0,0-4.13,3.98,3.824,3.824,0,0,0,.11.9,11.862,11.862,0,0,1-8.51-4.15,3.786,3.786,0,0,0-.56,2,3.96,3.96,0,0,0,1.83,3.31,4.234,4.234,0,0,1-1.87-.5v0.05a4.028,4.028,0,0,0,3.32,3.9,4.341,4.341,0,0,1-1.09.14,4.918,4.918,0,0,1-.78-0.07,4.117,4.117,0,0,0,3.86,2.76,8.516,8.516,0,0,1-5.13,1.7,7.934,7.934,0,0,1-.98-0.06v0.01a12.145,12.145,0,0,0,6.08,1.78h0.59" transform="translate(-994.125 -2629)"/>
</svg>
