<svg id="instagram_icon" xmlns="http://www.w3.org/2000/svg" width="35" height="35" viewBox="0 0 35 35">
  <metadata><?xpacket begin="﻿" id="W5M0MpCehiHzreSzNTczkc9d"?>
<x:xmpmeta xmlns:x="adobe:ns:meta/" x:xmptk="Adobe XMP Core 5.6-c138 79.159824, 2016/09/14-01:09:01        ">
   <rdf:RDF xmlns:rdf="http://www.w3.org/1999/02/22-rdf-syntax-ns#">
      <rdf:Description rdf:about=""/>
   </rdf:RDF>
</x:xmpmeta>
                                                                                                    
                                                                                                    
                                                                                                    
                                                                                                    
                                                                                                    
                                                                                                    
                                                                                                    
                                                                                                    
                                                                                                    
                                                                                                    
                                                                                                    
                                                                                                    
                                                                                                    
                                                                                                    
                                                                                                    
                                                                                                    
                                                                                                    
                                                                                                    
                                                                                                    
                                                                                                    
                           
<?xpacket end="w"?></metadata>
<defs>
    <style>
      .cls-1 {
        fill: #a59797;
      }

      .cls-2 {
        fill: #fff;
        fill-rule: evenodd;
      }
    </style>
  </defs>
  <rect id="Rectangle_9_copy_2" data-name="Rectangle 9 copy 2" class="cls-1" width="35" height="35" rx="10" ry="10"/>
  <path class="cls-2" d="M1064.45,2636h-9.4a5.8,5.8,0,0,0-5.8,5.8v9.4a5.8,5.8,0,0,0,5.8,5.8h9.4a5.8,5.8,0,0,0,5.8-5.8v-9.4A5.8,5.8,0,0,0,1064.45,2636Zm3.94,15.2a3.948,3.948,0,0,1-3.94,3.94h-9.4a3.948,3.948,0,0,1-3.94-3.94v-9.4a3.948,3.948,0,0,1,3.94-3.94h9.4a3.948,3.948,0,0,1,3.94,3.94v9.4h0Zm-8.64-10.11a5.41,5.41,0,1,0,5.41,5.41A5.42,5.42,0,0,0,1059.75,2641.09Zm0,8.96a3.55,3.55,0,1,1,3.55-3.55A3.551,3.551,0,0,1,1059.75,2650.05Zm5.64-10.54a1.37,1.37,0,0,0-.97.4,1.364,1.364,0,0,0,0,1.93,1.413,1.413,0,0,0,.97.4,1.371,1.371,0,0,0,.96-0.4,1.364,1.364,0,0,0,0-1.93A1.33,1.33,0,0,0,1065.39,2639.51Z" transform="translate(-1042.25 -2629)"/>
</svg>
