<svg id="patterns" xmlns="http://www.w3.org/2000/svg" xmlns:xlink="http://www.w3.org/1999/xlink" width="170" height="170.16" viewBox="0 0 170 170.16">
  <metadata><?xpacket begin="﻿" id="W5M0MpCehiHzreSzNTczkc9d"?>
<x:xmpmeta xmlns:x="adobe:ns:meta/" x:xmptk="Adobe XMP Core 5.6-c138 79.159824, 2016/09/14-01:09:01        ">
   <rdf:RDF xmlns:rdf="http://www.w3.org/1999/02/22-rdf-syntax-ns#">
      <rdf:Description rdf:about=""/>
   </rdf:RDF>
</x:xmpmeta>
                                                                                                    
                                                                                                    
                                                                                                    
                                                                                                    
                                                                                                    
                                                                                                    
                                                                                                    
                                                                                                    
                                                                                                    
                                                                                                    
                                                                                                    
                                                                                                    
                                                                                                    
                                                                                                    
                                                                                                    
                                                                                                    
                                                                                                    
                                                                                                    
                                                                                                    
                                                                                                    
                           
<?xpacket end="w"?></metadata>
<defs>
    <style>
      .cls-1 {
        fill: url(#linear-gradient);
      }

      .cls-2 {
        fill: #fff;
        fill-rule: evenodd;
      }
    </style>
    <linearGradient id="linear-gradient" x1="85" y1="170.16" x2="85" gradientUnits="userSpaceOnUse">
      <stop offset="0" stop-color="#ff84a2"/>
      <stop offset="1" stop-color="#fed3ec"/>
    </linearGradient>
  </defs>
  <rect id="Icon2" class="cls-1" width="170" height="170.16" rx="40" ry="40"/>
  <path class="cls-2" d="M973.662,1739v-27.34h27.328v27.35Zm-54.653-82.02h27.326v27.34H919.009v-27.34Zm0,54.69h27.329V1739H919.006v-27.33Zm54.656-54.69h27.328v27.34H973.662v-27.34Zm-27.327,27.34v27.34h27.327v-27.34H946.335ZM960,1703.8a5.805,5.805,0,1,1,5.8-5.81A5.8,5.8,0,0,1,960,1703.8Zm0-38.95a5.805,5.805,0,1,1-5.8,5.8A5.8,5.8,0,0,1,960,1664.85Zm0,54.68a5.805,5.805,0,1,1-5.8,5.8A5.8,5.8,0,0,1,960,1719.53Zm28.161-27.34a5.805,5.805,0,1,1-5.8,5.8A5.8,5.8,0,0,1,988.161,1692.19Zm-56.325,0a5.805,5.805,0,1,1-5.8,5.8A5.8,5.8,0,0,1,931.836,1692.19Z" transform="translate(-875 -1612.84)"/>
</svg>
