<svg xmlns="http://www.w3.org/2000/svg" width="23.188" height="22" viewBox="0 0 23.188 22">
  <metadata><?xpacket begin="﻿" id="W5M0MpCehiHzreSzNTczkc9d"?>
<x:xmpmeta xmlns:x="adobe:ns:meta/" x:xmptk="Adobe XMP Core 5.6-c138 79.159824, 2016/09/14-01:09:01        ">
   <rdf:RDF xmlns:rdf="http://www.w3.org/1999/02/22-rdf-syntax-ns#">
      <rdf:Description rdf:about=""/>
   </rdf:RDF>
</x:xmpmeta>
                                                                                                    
                                                                                                    
                                                                                                    
                                                                                                    
                                                                                                    
                                                                                                    
                                                                                                    
                                                                                                    
                                                                                                    
                                                                                                    
                                                                                                    
                                                                                                    
                                                                                                    
                                                                                                    
                                                                                                    
                                                                                                    
                                                                                                    
                                                                                                    
                                                                                                    
                                                                                                    
                           
<?xpacket end="w"?></metadata>
<defs>
    <style>
      .cls-1 {
        fill: #a59797;
        fill-rule: evenodd;
      }
    </style>
  </defs>
  <path id="star_icon" class="cls-1" d="M668.636,3570.94l2.511,5.04a1.4,1.4,0,0,0,1.045.76l5.616,0.8a1.376,1.376,0,0,1,.77,2.35l-4.064,3.93a1.352,1.352,0,0,0-.4,1.21l0.959,5.55a1.387,1.387,0,0,1-2.014,1.45l-5.023-2.62a1.4,1.4,0,0,0-1.292,0l-5.023,2.62a1.387,1.387,0,0,1-2.014-1.45l0.96-5.55a1.353,1.353,0,0,0-.4-1.21l-4.063-3.93a1.375,1.375,0,0,1,.769-2.35l5.616-.8a1.4,1.4,0,0,0,1.045-.76l2.512-5.04A1.4,1.4,0,0,1,668.636,3570.94Z" transform="translate(-655.781 -3570.19)"/>
</svg>
