<svg id="zoom_icon" xmlns="http://www.w3.org/2000/svg" width="100" height="100" viewBox="0 0 100 100">
  <metadata><?xpacket begin="﻿" id="W5M0MpCehiHzreSzNTczkc9d"?>
<x:xmpmeta xmlns:x="adobe:ns:meta/" x:xmptk="Adobe XMP Core 5.6-c138 79.159824, 2016/09/14-01:09:01        ">
   <rdf:RDF xmlns:rdf="http://www.w3.org/1999/02/22-rdf-syntax-ns#">
      <rdf:Description rdf:about=""/>
   </rdf:RDF>
</x:xmpmeta>
                                                                                                    
                                                                                                    
                                                                                                    
                                                                                                    
                                                                                                    
                                                                                                    
                                                                                                    
                                                                                                    
                                                                                                    
                                                                                                    
                                                                                                    
                                                                                                    
                                                                                                    
                                                                                                    
                                                                                                    
                                                                                                    
                                                                                                    
                                                                                                    
                                                                                                    
                                                                                                    
                           
<?xpacket end="w"?></metadata>
<defs>
    <style>
      .cls-1 {
        fill: #ff84a2;
      }

      .cls-2 {
        fill: #fff;
        fill-rule: evenodd;
      }
    </style>
  </defs>
  <circle class="cls-1" cx="50" cy="50" r="50"/>
  <path class="cls-2" d="M726.367,2284.66a20.3,20.3,0,1,0-3.7,3.7l7.854,7.86a2.621,2.621,0,0,0,3.7-3.71Zm-31.049-12.34a15.008,15.008,0,1,1,25.7,10.53l-0.085.07-0.072.09a15,15,0,0,1-25.525-10.69h-0.013Zm20.316-2.62h-2.69v-2.68a2.618,2.618,0,1,0-5.236,0v2.68h-2.684a2.62,2.62,0,0,0,0,5.24h2.684v2.68a2.618,2.618,0,1,0,5.236,0v-2.68h2.683a2.62,2.62,0,0,0,0-5.24h0.007Z" transform="translate(-662 -2224)"/>
</svg>
